<svg version="1.1" viewBox="0 0 64 64" xmlns="http://www.w3.org/2000/svg">
    <defs>
        <linearGradient id="a" x2="0" y1="392.36" y2="336.36" gradientTransform="translate(-6,-332.36)" gradientUnits="userSpaceOnUse">
            <stop stop-color="#fff" stop-opacity="0" offset="0"/>
            <stop stop-color="#fff" stop-opacity=".2" offset="1"/>
        </linearGradient>
    </defs>
    <g transform="translate(0,-4)" color="#000000" color-rendering="auto" image-rendering="auto" shape-rendering="auto">
        <circle cx="37" cy="36" r="24" fill="#adcf98"/>
        <path d="m5 11v50h50v-20h-4.096c-2.717 0-4.904-2.187-4.904-4.904v-0.191c0-2.717 2.187-4.904 4.904-4.904h4.096v-20z" fill="#5b9d2f"/>
        <rect x="5" y="60" width="50" height="1" opacity=".25"/>
        <g fill="#fff" style="display:none">
            <rect x="5" y="11" width="50" height="1" opacity=".5"/>
            <path d="m21 25v16.05c-0.635-0.648-1.517-1.053-2.5-1.053-1.939 0-3.5 1.561-3.5 3.5s1.561 3.5 3.5 3.5c1.905 0 3.437-1.509 3.49-3.4h0.01v-13.6h14v8.05c-0.635-0.648-1.517-1.053-2.5-1.053-1.939 0-3.5 1.561-3.5 3.5s1.561 3.5 3.5 3.5 3.5-1.561 3.5-3.5v-15.5h-15zm1 2h14v2h-14z" opacity=".75"/>
        </g>
        <g fill="#fff" opacity=".75" transform="translate(26,36) scale(0.026,-0.026) translate(-512,-448)">
            <path d="M511.999 902c-237.481 0-430.105-192.623-430.105-430.105v-334.526c0-79.33 64.038-143.368 143.368-143.368h143.368v382.315h-191.158v95.579c0 184.913 149.549 334.526 334.526 334.526s334.526-149.613 334.526-334.526v-95.579h-191.158v-382.315h143.368c79.33 0 143.368 64.038 143.368 143.368v334.526c0 237.481-192.623 430.105-430.105 430.105z"/>
            <path d="M746 331c0-9.88-5.46-18.46-13.78-22.88l-205.4-115.44c-4.16-3.12-9.36-4.68-14.82-4.68s-10.66 1.56-14.82 4.68l-205.4 115.44c-8.32 4.42-13.78 13-13.78 22.88v234c0 9.88 5.46 18.46 13.78 22.88l205.4 115.44c4.16 3.12 9.36 4.68 14.82 4.68s10.66-1.56 14.82-4.68l205.4-115.44c8.32-4.42 13.78-13 13.78-22.88v-234zM512 652.1l-154.96-87.1 154.96-87.1 154.96 87.1-154.96 87.1zM330 346.34l156-87.88v174.46l-156 87.62v-174.2zM694 346.34v174.2l-156-87.62v-174.46l156 87.88z"/>
        </g>
        <path d="m5 11v50h50v-9.158a24 24 0 0 0 6-15.841797 24 24 0 0 0-6-15.830078v-9.17z" fill="url(#a)"/>
    </g>
</svg>
