<svg xmlns="http://www.w3.org/2000/svg" width="1024" height="1024">
<g transform="scale(1,-1) translate(0,-960)">
<path d="M511.999 902c-237.481 0-430.105-192.623-430.105-430.105v-334.526c0-79.33 64.038-143.368 143.368-143.368h143.368v382.315h-191.158v95.579c0 184.913 149.549 334.526 334.526 334.526s334.526-149.613 334.526-334.526v-95.579h-191.158v-382.315h143.368c79.33 0 143.368 64.038 143.368 143.368v334.526c0 237.481-192.623 430.105-430.105 430.105z" fill="#449607"/>
<path d="M746 331c0-9.88-5.46-18.46-13.78-22.88l-205.4-115.44c-4.16-3.12-9.36-4.68-14.82-4.68s-10.66 1.56-14.82 4.68l-205.4 115.44c-8.32 4.42-13.78 13-13.78 22.88v234c0 9.88 5.46 18.46 13.78 22.88l205.4 115.44c4.16 3.12 9.36 4.68 14.82 4.68s10.66-1.56 14.82-4.68l205.4-115.44c8.32-4.42 13.78-13 13.78-22.88v-234zM512 652.1l-154.96-87.1 154.96-87.1 154.96 87.1-154.96 87.1zM330 346.34l156-87.88v174.46l-156 87.62v-174.2zM694 346.34v174.2l-156-87.62v-174.46l156 87.88z" fill="#d44d04"/>
</g>
</svg>
